<svg width="22" height="22" viewBox="0 0 22 22" fill="none" xmlns="http://www.w3.org/2000/svg">
<path d="M6.5 21.25C7.60457 21.25 8.5 20.3546 8.5 19.25V15.75C8.5 14.6454 9.39543 13.75 10.5 13.75H11.5C12.6046 13.75 13.5 14.6454 13.5 15.75V19.25C13.5 20.3546 14.3954 21.25 15.5 21.25H17.75C18.8546 21.25 19.75 20.3546 19.75 19.25V12.2899C19.75 11.7156 20.2156 11.25 20.7899 11.25C21.743 11.25 22.1941 10.0747 21.4856 9.43707L12.3379 1.20414C11.5773 0.519588 10.4227 0.519588 9.66207 1.20414L0.514369 9.43707C-0.19406 10.0747 0.256961 11.25 1.21005 11.25C1.7844 11.25 2.25 11.7156 2.25 12.2899V19.25C2.25 20.3546 3.14543 21.25 4.25 21.25H6.5Z" fill="#FF3DE0"/>
</svg>
